<svg width="191" height="48" viewBox="0 0 191 48" fill="none" xmlns="http://www.w3.org/2000/svg">
<path d="M0 9C0 6.23858 2.23858 4 5 4H15C17.7614 4 20 6.23858 20 9V18.8192C20.0002 18.8792 20.0003 18.9395 20.0003 19C20.0003 21.7575 22.2325 23.9936 24.9884 24C24.9923 24 24.9961 24 25 24H35C37.7614 24 40 26.2386 40 29V39C40 41.7614 37.7614 44 35 44H25C22.2386 44 20 41.7614 20 39V29C20 28.9861 20.0001 28.9723 20.0002 28.9584C19.9778 26.2162 17.7479 24 15.0003 24C14.9874 24 14.9745 24 14.9616 24H5C2.23858 24 0 21.7614 0 19V9Z" fill="#0A0D12"/>
<path d="M63.9122 33.4165C62.1398 33.4165 60.6092 33.1043 59.3202 32.48C58.0312 31.8556 57.0141 30.9896 56.2689 29.8818C55.5438 28.754 55.1208 27.4448 55 25.9544L58.9878 25.7127C59.1087 26.6392 59.3705 27.4247 59.7733 28.0692C60.1963 28.7137 60.7501 29.2071 61.4349 29.5495C62.1398 29.8718 62.9858 30.0329 63.9726 30.0329C64.8186 30.0329 65.5335 29.9322 66.1176 29.7308C66.7218 29.5092 67.175 29.1971 67.4771 28.7943C67.7994 28.3713 67.9605 27.8577 67.9605 27.2535C67.9605 26.7097 67.8296 26.2263 67.5677 25.8034C67.3059 25.3603 66.8024 24.9675 66.0572 24.6251C65.312 24.2626 64.2043 23.9101 62.734 23.5678C60.9616 23.1649 59.5417 22.7118 58.4743 22.2083C57.4068 21.6846 56.6314 21.0401 56.148 20.2748C55.6646 19.4893 55.423 18.5125 55.423 17.3443C55.423 16.0956 55.7351 14.9979 56.3595 14.0513C56.9839 13.0846 57.87 12.3394 59.0181 11.8157C60.1661 11.2719 61.5457 11 63.157 11C64.8689 11 66.319 11.3122 67.5073 11.9365C68.6956 12.5408 69.6322 13.3766 70.3169 14.444C71.0017 15.5115 71.4247 16.7401 71.5858 18.1298L67.6282 18.3111C67.5275 17.5256 67.2858 16.8408 66.9031 16.2567C66.5406 15.6726 66.0371 15.2195 65.3926 14.8972C64.7682 14.5548 64.0029 14.3836 63.0965 14.3836C61.9687 14.3836 61.0724 14.6455 60.4078 15.1691C59.7633 15.6726 59.441 16.3473 59.441 17.1932C59.441 17.7773 59.5719 18.2607 59.8337 18.6434C60.1157 19.026 60.6092 19.3584 61.3141 19.6403C62.019 19.9022 63.0059 20.1841 64.2748 20.4862C66.1881 20.8891 67.7087 21.4026 68.8366 22.027C69.9645 22.6514 70.7701 23.3764 71.2535 24.2022C71.7369 25.028 71.9785 25.9746 71.9785 27.042C71.9785 28.3512 71.6462 29.4891 70.9816 30.4559C70.3169 31.4025 69.3804 32.1376 68.172 32.6613C66.9635 33.1648 65.5436 33.4165 63.9122 33.4165Z" fill="black"/>
<path d="M81.4575 33.2957C79.8462 33.2957 78.4464 32.9533 77.2581 32.2685C76.0698 31.5636 75.1434 30.5767 74.4787 29.3078C73.8342 28.039 73.512 26.5586 73.512 24.8668C73.512 23.175 73.8342 21.7047 74.4787 20.456C75.1434 19.1872 76.0698 18.2003 77.2581 17.4954C78.4464 16.7904 79.8462 16.438 81.4575 16.438C82.827 16.438 84.0455 16.6797 85.113 17.163C86.1804 17.6464 87.0465 18.3413 87.7111 19.2476C88.3959 20.1338 88.8189 21.2214 88.98 22.5104L84.9921 22.7218C84.831 21.6947 84.4282 20.9193 83.7837 20.3956C83.1593 19.8518 82.3839 19.5799 81.4575 19.5799C80.2087 19.5799 79.242 20.0532 78.5572 20.9998C77.8724 21.9263 77.53 23.2153 77.53 24.8668C77.53 26.5385 77.8724 27.8376 78.5572 28.764C79.242 29.6905 80.2087 30.1537 81.4575 30.1537C82.4041 30.1537 83.1895 29.8818 83.8139 29.338C84.4584 28.7943 84.8512 27.9483 84.9921 26.8003L88.98 26.9816C88.8189 28.2706 88.406 29.3884 87.7413 30.335C87.0767 31.2816 86.2106 32.0168 85.1432 32.5404C84.0757 33.0439 82.8472 33.2957 81.4575 33.2957Z" fill="black"/>
<path d="M95.0864 33.2957C93.3946 33.2957 92.0351 32.913 91.0079 32.1477C89.9807 31.3622 89.4671 30.2746 89.4671 28.8849C89.4671 27.4952 89.9002 26.4076 90.7662 25.6221C91.6322 24.8366 92.9515 24.2727 94.7238 23.9303L100.071 22.8729C100.071 21.7249 99.8093 20.8689 99.2857 20.305C98.762 19.7209 97.9866 19.4289 96.9594 19.4289C96.033 19.4289 95.2978 19.6504 94.754 20.0935C94.2304 20.5165 93.8679 21.1307 93.6664 21.9364L89.739 21.7551C90.0613 20.0431 90.8468 18.734 92.0955 17.8277C93.3442 16.9012 94.9655 16.438 96.9594 16.438C99.2555 16.438 100.988 17.022 102.156 18.1902C103.344 19.3382 103.938 20.9898 103.938 23.1448V29.0057C103.938 29.4287 104.009 29.7207 104.15 29.8818C104.311 30.043 104.542 30.1235 104.844 30.1235H105.358V32.9332C105.237 32.9734 105.036 33.0036 104.754 33.0238C104.492 33.0439 104.22 33.054 103.938 33.054C103.274 33.054 102.679 32.9533 102.156 32.7519C101.632 32.5303 101.229 32.1577 100.947 31.6341C100.665 31.0903 100.524 30.3552 100.524 29.4287L100.857 29.6704C100.696 30.3753 100.343 31.0097 99.7993 31.5737C99.2756 32.1175 98.611 32.5404 97.8053 32.8425C96.9997 33.1446 96.0934 33.2957 95.0864 33.2957ZM95.8718 30.4861C96.7379 30.4861 97.4831 30.3149 98.1075 29.9725C98.7318 29.6301 99.2152 29.1568 99.5576 28.5526C99.9 27.9483 100.071 27.2334 100.071 26.4076V25.5013L95.9021 26.3472C95.036 26.5284 94.4116 26.8003 94.029 27.1629C93.6664 27.5053 93.4852 27.9584 93.4852 28.5224C93.4852 29.1467 93.6866 29.6301 94.0894 29.9725C94.5124 30.3149 95.1065 30.4861 95.8718 30.4861Z" fill="black"/>
<path d="M107.225 32.9332V16.1661C107.225 14.7159 107.627 13.578 108.433 12.7522C109.259 11.9063 110.518 11.4834 112.209 11.4834H115.351V14.4743H112.934C112.31 14.4743 111.847 14.6354 111.545 14.9576C111.263 15.2799 111.122 15.7532 111.122 16.3775V32.9332H107.225ZM104.929 20.2143V17.2235H115.14V20.2143H104.929ZM117.134 32.9332V16.1661C117.134 14.7159 117.537 13.578 118.342 12.7522C119.168 11.9063 120.427 11.4834 122.119 11.4834H125.26V14.4743H122.844C122.219 14.4743 121.756 14.6354 121.454 14.9576C121.172 15.2799 121.031 15.7532 121.031 16.3775V32.9332H117.134ZM114.838 20.2143V17.2235H125.049V20.2143H114.838Z" fill="black"/>
<path d="M132.686 33.2957C131.095 33.2957 129.695 32.9533 128.487 32.2685C127.299 31.5636 126.372 30.5767 125.707 29.3078C125.063 28.039 124.741 26.5586 124.741 24.8668C124.741 23.1549 125.063 21.6745 125.707 20.4258C126.372 19.157 127.299 18.1801 128.487 17.4954C129.695 16.7904 131.095 16.438 132.686 16.438C134.277 16.438 135.667 16.7904 136.855 17.4954C138.044 18.1801 138.96 19.157 139.605 20.4258C140.269 21.6745 140.601 23.1549 140.601 24.8668C140.601 26.5586 140.269 28.039 139.605 29.3078C138.96 30.5767 138.044 31.5636 136.855 32.2685C135.667 32.9533 134.277 33.2957 132.686 33.2957ZM132.686 30.1537C133.935 30.1537 134.892 29.6905 135.556 28.764C136.241 27.8376 136.583 26.5385 136.583 24.8668C136.583 23.2153 136.241 21.9263 135.556 20.9998C134.892 20.0532 133.935 19.5799 132.686 19.5799C131.438 19.5799 130.471 20.0532 129.786 20.9998C129.101 21.9263 128.759 23.2153 128.759 24.8668C128.759 26.5385 129.101 27.8376 129.786 28.764C130.471 29.6905 131.438 30.1537 132.686 30.1537Z" fill="black"/>
<path d="M146.089 32.9332C144.921 32.9332 143.985 32.631 143.28 32.0268C142.575 31.4226 142.222 30.4559 142.222 29.1266V11.4834H146.089V28.7338C146.089 29.1366 146.19 29.4388 146.392 29.6402C146.613 29.8416 146.915 29.9423 147.298 29.9423H148.476V32.9332H146.089Z" fill="black"/>
<path d="M155.185 33.2957C153.815 33.2957 152.627 32.9533 151.62 32.2685C150.633 31.5837 149.868 30.6069 149.324 29.338C148.78 28.0692 148.508 26.5788 148.508 24.8668C148.508 23.1549 148.78 21.6645 149.324 20.3956C149.868 19.1267 150.643 18.1499 151.65 17.4651C152.657 16.7804 153.835 16.438 155.185 16.438C156.313 16.438 157.3 16.6696 158.146 17.1328C159.012 17.5961 159.666 18.2506 160.109 19.0965V11.4834H163.976V32.9332H160.291L160.2 30.5465C159.757 31.4125 159.092 32.0872 158.206 32.5706C157.32 33.054 156.313 33.2957 155.185 33.2957ZM156.363 30.1537C157.169 30.1537 157.843 29.9523 158.387 29.5495C158.951 29.1467 159.374 28.5526 159.656 27.7671C159.958 26.9615 160.109 25.9947 160.109 24.8668C160.109 23.7188 159.958 22.7521 159.656 21.9666C159.374 21.1811 158.951 20.5869 158.387 20.1841C157.843 19.7813 157.169 19.5799 156.363 19.5799C155.195 19.5799 154.258 20.0532 153.553 20.9998C152.869 21.9263 152.526 23.2153 152.526 24.8668C152.526 26.4781 152.869 27.7671 153.553 28.7338C154.258 29.6804 155.195 30.1537 156.363 30.1537Z" fill="black"/>
<rect x="166.109" y="32.9331" width="24.4011" height="4.06686" fill="black"/>
</svg>
